<?xml version="1.0" encoding="UTF-8" standalone="no"?>
<!DOCTYPE svg PUBLIC "-//W3C//DTD SVG 1.1//EN" "http://www.w3.org/Graphics/SVG/1.1/DTD/svg11.dtd">
<svg width="100%" height="100%" viewBox="0 0 1000 1000" version="1.1" xmlns="http://www.w3.org/2000/svg" xmlns:xlink="http://www.w3.org/1999/xlink" xml:space="preserve" xmlns:serif="http://www.serif.com/" style="fill-rule:evenodd;clip-rule:evenodd;stroke-linejoin:round;stroke-miterlimit:2;">
    <g transform="matrix(5.4411,0,0,5.4411,-2104.88,-2131.98)">
        <path d="M443.328,472.918C440.983,473.053 438.762,474.045 437.092,475.714C435.291,477.515 434.28,479.957 434.28,482.503C434.28,496.662 434.28,522.99 434.28,537.148C434.28,539.695 435.291,542.136 437.092,543.937C438.892,545.737 441.334,546.749 443.881,546.749C460.977,546.749 496.504,546.749 513.601,546.749C516.147,546.749 518.589,545.737 520.389,543.937C522.19,542.136 523.201,539.695 523.201,537.148C523.201,522.99 523.201,496.662 523.201,482.503C523.201,479.957 522.19,477.515 520.389,475.714C518.84,474.165 516.815,473.2 514.658,472.961L514.659,472.902C514.659,472.902 514.659,465.327 514.659,456.358C514.659,446.9 510.901,437.828 504.213,431.14C497.524,424.451 488.453,420.694 478.994,420.694C478.993,420.694 478.993,420.694 478.992,420.694C469.534,420.694 460.462,424.451 453.774,431.14C447.085,437.828 443.328,446.9 443.328,456.358L443.328,472.902L443.328,472.918ZM501.241,472.902C501.241,472.902 501.241,465.327 501.241,456.358C501.241,450.458 498.897,444.799 494.725,440.627C490.553,436.455 484.894,434.111 478.994,434.111C478.994,434.111 478.992,434.111 478.992,434.111C473.092,434.111 467.433,436.455 463.261,440.627C459.089,444.799 456.745,450.458 456.745,456.358L456.745,472.902L501.241,472.902Z" style="fill:white;"/>
    </g>
</svg>
